<?xml version="1.0" encoding="UTF-8"?>
<!DOCTYPE svg PUBLIC "-//W3C//DTD SVG 1.1//EN" "http://www.w3.org/Graphics/SVG/1.1/DTD/svg11.dtd">
<!-- Creator: CorelDRAW (Evaluation Version) -->
<svg xmlns="http://www.w3.org/2000/svg" xml:space="preserve" width="51.6981mm" height="14.1mm" version="1.1" style="shape-rendering:geometricPrecision; text-rendering:geometricPrecision; image-rendering:optimizeQuality; fill-rule:evenodd; clip-rule:evenodd"
viewBox="0 0 2137.03 582.85"
 xmlns:xlink="http://www.w3.org/1999/xlink"
 xmlns:xodm="http://www.corel.com/coreldraw/odm/2003">
 <defs>
  <style type="text/css">
   <![CDATA[
    .fil0 {fill:#D8A656;fill-rule:nonzero}
   ]]>
  </style>
 </defs>
 <g id="Layer_x0020_10">
  <metadata id="CorelCorpID_0Corel-Layer"/>
  <g id="_2307034908096">
   <path class="fil0" d="M247.89 289.19c-34.21,9.84 -58.4,16.18 -72.7,19.11 -14.29,2.94 -26.73,4.49 -37.28,4.58 -40.83,0.33 -73.93,-13.24 -99.31,-40.67 -25.35,-27.41 -38.23,-63.55 -38.59,-108.38 -0.18,-22.3 3.2,-42.88 10.1,-61.72 6.92,-18.79 17.21,-35.55 30.9,-50.18 13.14,-13.97 28.3,-24.61 45.44,-32.07 17.09,-7.37 35.47,-11.17 54.97,-11.33 17.12,-0.14 34.23,2.08 51.43,6.7 17.16,4.53 34.82,11.62 52.99,21.13l0.51 62.73 -18.54 0.15c-9.74,-21.82 -21.4,-38.44 -35.03,-49.86 -13.67,-11.38 -28.49,-16.97 -44.57,-16.84 -24.26,0.2 -43.85,11.08 -58.66,32.78 -14.78,21.62 -22.04,50.17 -21.76,85.73 0.31,38.98 8.37,70.59 24.13,94.72 15.78,24.2 35.81,36.14 60.16,35.95 5.13,-0.04 10.6,-0.84 16.46,-2.47 5.87,-1.57 11.87,-3.9 18.1,-6.89l-0.45 -56.27c-0.11,-13.78 -2.03,-22.58 -5.81,-26.41 -3.69,-3.89 -11.63,-6.1 -23.59,-6.7l-0.18 -21.99 124.36 -1 0.18 21.99c-13.05,1.05 -21.98,3.89 -26.79,8.61 -4.8,4.68 -7.18,12.87 -7.09,24.57l0.6 74.05zm53.56 16.94l-0.19 -24.05c6.47,-1.76 11.59,-5.2 15.48,-10.19 3.82,-5.04 7.7,-13.89 11.52,-26.74l61.27 -206.73c0.59,-2.4 0.91,-4.21 1.11,-5.37 0.17,-1.13 0.31,-2.08 0.3,-2.92 -0.02,-2.82 -0.74,-5.64 -2.12,-8.45 -1.29,-2.81 -3.33,-5.73 -6.12,-8.82l65.93 -0.53 75.34 235.71c3.34,10.17 7.09,17.86 11.37,23.07 4.21,5.19 9.14,8.2 14.77,8.97l0.19 24.05 -114.05 0.92 -0.19 -24.05c7.9,-0.47 13.7,-2.16 17.51,-5.15 3.69,-3.01 5.55,-7.42 5.5,-13.21 -0.01,-1.71 -0.26,-3.92 -0.77,-6.54 -0.51,-2.62 -1.28,-5.93 -2.41,-9.98l-10.96 -43.66 -80.33 0.65 -9.22 40.25c-0.91,4.02 -1.53,7.33 -1.88,9.82 -0.32,2.48 -0.51,4.67 -0.49,6.74 0.06,6.94 2,12.32 5.78,16.06 3.83,3.78 9.29,5.58 16.47,5.52l1.12 -0.01 0.19 24.06 -75.12 0.6zm71.21 -128.72l62.55 -0.5 -31.76 -105.07 -30.79 105.57zm212.67 -142.16l-0.19 -24.03 121.11 -0.98 0.19 24.03c-11.64,1.48 -19.37,4.31 -23.24,8.6 -3.83,4.24 -5.72,12.78 -5.62,25.52l1.59 197.15c0.14,17.49 -0.36,30.98 -1.46,40.44 -1.13,9.52 -3.03,17.92 -5.73,25.17 -5.9,15.9 -15.42,28.11 -28.72,36.54 -13.31,8.44 -29.57,12.78 -48.88,12.93 -14.98,0.12 -26.77,-3.1 -35.46,-9.63 -8.73,-6.47 -13.1,-15.4 -13.19,-26.69 -0.06,-7.84 2.11,-14.29 6.42,-19.34 4.3,-5.07 9.76,-7.65 16.18,-7.7 4.5,-0.04 8.28,1.03 11.49,3.13 3.16,2.11 7.12,6.77 11.9,13.82 0.55,0.98 1.28,2.07 2.16,3.44 4.73,7.31 9.05,11.02 13.03,10.99 3.69,-0.03 6.32,-1.52 7.77,-4.41 1.5,-2.92 2.21,-8.63 2.14,-17.1l-2.08 -258.23c-0.1,-12.74 -2.13,-21.26 -6.05,-25.43 -3.96,-4.23 -11.7,-6.94 -23.36,-8.23zm146.27 267.39l-0.19 -24.03c6.5,-1.76 11.6,-5.2 15.51,-10.19 3.82,-5.04 7.67,-13.89 11.49,-26.74l61.26 -206.73c0.59,-2.4 0.95,-4.21 1.11,-5.37 0.2,-1.13 0.3,-2.08 0.3,-2.92 -0.02,-2.82 -0.71,-5.64 -2.09,-8.45 -1.31,-2.81 -3.35,-5.73 -6.15,-8.82l65.92 -0.53 75.38 235.71c3.34,10.17 7.06,17.86 11.35,23.07 4.21,5.19 9.14,8.2 14.79,8.97l0.19 24.03 -114.07 0.92 -0.19 -24.03c7.92,-0.47 13.73,-2.16 17.51,-5.15 3.72,-3.01 5.59,-7.42 5.54,-13.21 -0.01,-1.71 -0.29,-3.92 -0.8,-6.54 -0.51,-2.62 -1.26,-5.93 -2.42,-9.98l-10.95 -43.66 -80.33 0.65 -9.19 40.25c-0.95,4.02 -1.53,7.33 -1.88,9.78 -0.35,2.51 -0.51,4.7 -0.49,6.78 0.05,6.94 2,12.32 5.78,16.06 3.8,3.78 9.29,5.58 16.47,5.52l1.1 -0.01 0.19 24.03 -75.12 0.6zm71.21 -128.69l62.55 -0.5 -31.74 -105.07 -30.82 105.57zm197.42 126.53l-0.19 -24.03c12.55,-1.49 21.11,-5.28 25.59,-11.5 4.5,-6.24 6.64,-19.68 6.47,-40.43l-1.37 -169.83c-6.06,-8.17 -11.49,-14.06 -16.42,-17.5 -4.96,-3.56 -10.04,-5.31 -15.32,-5.27l-0.93 0 -0.19 -24.03 72.24 -0.58c3.49,-0.02 5.94,0.44 7.37,1.38 1.5,0.88 3.45,3 6.01,6.35l135.6 177.14 -0.97 -120.7c-0.1,-12.6 -2.69,-22.14 -7.81,-28.53 -5.16,-6.41 -13.6,-10.61 -25.2,-12.53l-0.19 -24.03 88.92 -0.72 0.19 24.03c-11.83,2.23 -20.07,6.35 -24.63,12.33 -4.53,5.98 -6.79,15.67 -6.68,29.25l1.49 184.66c0.06,7.37 0.24,15.01 0.62,23.02 0.38,7.9 0.94,16.37 1.56,25.4l-26.39 0.21 -165.02 -214.01 1.08 133.76c0.15,19.37 2.88,32.37 8.26,39.01 5.39,6.64 15.79,10.76 31.14,12.35l0.19 24.03 -95.41 0.77zm293.73 -2.37l-0.19 -24.03c6.5,-1.76 11.63,-5.2 15.51,-10.19 3.82,-5.04 7.67,-13.89 11.48,-26.75l61.27 -206.72c0.62,-2.4 0.95,-4.22 1.14,-5.37 0.17,-1.13 0.27,-2.08 0.26,-2.92 -0.02,-2.82 -0.71,-5.64 -2.09,-8.45 -1.32,-2.81 -3.36,-5.76 -6.15,-8.82l65.92 -0.53 75.38 235.71c3.34,10.18 7.09,17.87 11.37,23.07 4.19,5.18 9.14,8.2 14.77,8.96l0.19 24.03 -114.05 0.92 -0.19 -24.03c7.9,-0.48 13.7,-2.16 17.48,-5.16 3.72,-3 5.58,-7.42 5.53,-13.21 -0.01,-1.73 -0.26,-3.92 -0.79,-6.54 -0.49,-2.62 -1.26,-5.93 -2.39,-9.98l-10.98 -43.66 -80.34 0.64 -9.19 40.25c-0.95,4.02 -1.53,7.33 -1.88,9.78 -0.36,2.51 -0.51,4.7 -0.49,6.78 0.06,6.94 2,12.32 5.78,16.06 3.83,3.77 9.29,5.58 16.49,5.52l1.1 -0.01 0.19 24.03 -75.15 0.6zm71.24 -128.69l62.55 -0.5 -31.76 -105.07 -30.79 105.57zm197.4 126.53l-0.19 -24.03c12.55,-1.49 21.1,-5.27 25.58,-11.5 4.51,-6.23 6.67,-19.68 6.5,-40.43l-1.37 -169.82c-6.08,-8.17 -11.52,-14.06 -16.44,-17.51 -4.96,-3.56 -10.05,-5.31 -15.32,-5.27l-0.93 0.01 -0.19 -24.03 72.24 -0.58c3.48,-0.03 5.96,0.44 7.36,1.38 1.48,0.88 3.45,3.01 6.01,6.35l135.62 177.14 -0.97 -120.7c-0.1,-12.6 -2.69,-22.14 -7.84,-28.53 -5.15,-6.41 -13.57,-10.61 -25.19,-12.53l-0.19 -24.03 88.92 -0.72 0.19 24.03c-11.79,2.23 -20.06,6.35 -24.6,12.33 -4.56,5.97 -6.82,15.67 -6.7,29.25l1.48 184.67c0.06,7.37 0.27,15.01 0.62,23.02 0.38,7.9 0.94,16.36 1.56,25.4l-26.36 0.21 -165.06 -214.01 1.08 133.75c0.15,19.37 2.91,32.37 8.3,39.01 5.38,6.64 15.76,10.76 31.1,12.34l0.19 24.03 -95.4 0.77zm388.52 -76.12c0.16,19.48 2.86,32.19 8.06,38.23 5.18,6.01 15.08,8.96 29.66,8.85 25.22,-0.2 44.76,-10.33 58.83,-30.5 14.02,-20.17 20.91,-48.12 20.62,-83.74 -0.33,-41.03 -9.38,-72.8 -27.02,-95.24 -17.67,-22.45 -42.23,-33.55 -73.75,-33.3 -6.56,0.05 -11.22,1.62 -13.88,4.66 -2.68,3.05 -3.99,8.16 -3.94,15.25l1.41 175.79zm-91.39 73.73l-0.19 -24.03c11.52,-1.48 19.16,-4.28 23.05,-8.52 3.82,-4.29 5.71,-12.78 5.61,-25.6l-1.42 -176.74c-0.1,-12.74 -2.13,-21.26 -6.02,-25.43 -3.96,-4.23 -11.64,-6.94 -23.19,-8.23l-0.19 -24.03 119.1 -0.96c49.24,-0.4 88.24,12.23 116.95,37.96 28.74,25.76 43.25,61.03 43.61,105.81 0.19,22.88 -3.82,44.32 -12.07,64.23 -8.23,19.9 -20.05,36.88 -35.52,50.98 -12.59,11.54 -27.25,19.99 -44.04,25.27 -16.67,5.32 -37.28,8.09 -61.69,8.28l-123.99 1z"/>
   <path class="fil0" d="M651.12 574.85l-0.29 -35.21 11.01 -0.09c2.19,9.72 6.39,17.27 12.78,22.57 6.32,5.28 14.21,7.93 23.55,7.85 6.83,-0.05 12.46,-1.98 16.87,-5.73 4.4,-3.78 6.61,-8.49 6.56,-14.17 -0.06,-7.93 -9.15,-16.79 -27.24,-26.55 -4.81,-2.7 -8.54,-4.8 -11.18,-6.27 -12.74,-7.28 -21.35,-13.98 -25.89,-20.02 -4.58,-6.01 -6.91,-13.23 -6.98,-21.61 -0.1,-12.33 4.34,-22.08 13.31,-29.23 8.98,-7.16 21.35,-10.81 37.05,-10.93 7.49,-0.06 14.65,0.94 21.49,2.99 6.82,2.08 13.62,5.28 20.33,9.61l0.22 28.01 -10.34 0.08c-2.15,-8.86 -6.3,-15.83 -12.36,-20.99 -6.1,-5.2 -13.17,-7.77 -21.21,-7.71 -6.37,0.05 -11.55,1.74 -15.52,5 -3.95,3.28 -5.9,7.45 -5.86,12.52 0.06,7.81 9.26,16.39 27.7,25.8l0.69 0.39c0.9,0.46 2.29,1.13 4.19,2.13 10.39,5.16 18.07,9.73 23.05,13.76 5.22,4.14 9.27,8.88 12.1,14.16 2.82,5.29 4.27,10.75 4.32,16.49 0.11,13.57 -4.33,24.46 -13.34,32.66 -8.98,8.2 -21.2,12.36 -36.61,12.48 -6.54,0.05 -13.84,-0.57 -21.92,-1.93 -8.02,-1.31 -16.85,-3.35 -26.51,-6.06zm170.8 -136.58l0.09 11.61 -1.18 0.01c-2.65,0.02 -4.72,0.64 -6.15,1.84 -1.46,1.22 -2.2,2.9 -2.18,4.94 0.01,1.1 0.31,2.82 0.82,5.12 0.53,2.3 1.31,4.72 2.22,7.25l22.55 61.92c3.72,-10.64 7.21,-20.64 10.36,-30.09 3.18,-9.42 6.08,-18.32 8.66,-26.72l-3.62 -12.74c-1.15,-4.08 -2.65,-7.04 -4.53,-8.92 -1.92,-1.88 -4.35,-2.79 -7.34,-2.77l-1.07 0.01 -0.1 -11.61 56.33 -0.45 0.1 11.61 -2.02 0.02c-3.15,0.02 -5.53,0.68 -7.13,1.96 -1.61,1.28 -2.43,3.17 -2.41,5.7 0.01,1.01 0.16,2.11 0.4,3.32 0.24,1.17 0.74,3.07 1.54,5.66l18.25 64.89c9.8,-28.61 15.99,-47.21 18.63,-55.77 2.64,-8.57 3.96,-13.86 3.94,-15.88 -0.03,-3.51 -1.03,-6.07 -2.97,-7.7 -1.89,-1.6 -5.01,-2.39 -9.24,-2.35l-0.87 0.01 -0.09 -11.61 40.17 -0.32 0.1 11.61c-3.26,0.43 -5.9,1.31 -8.02,2.69 -2.09,1.37 -3.66,3.31 -4.68,5.8 -0.62,1.44 -2.29,6.41 -4.95,14.94 -2.67,8.55 -4.86,15.48 -6.55,20.83 -3.63,11.36 -8.47,25.94 -14.58,43.86 -8.35,24.53 -12.79,39.5 -13.29,44.89l-14.7 0.12 -26.04 -85.29c-1.66,4.74 -3.94,11.45 -6.87,20.02 -12.75,37.69 -19.44,59.55 -20.05,65.7l-14.61 0.12 -41.39 -115.28c-1.85,-5.25 -3.87,-9.13 -5.96,-11.59 -2.15,-2.52 -4.88,-4.26 -8.2,-5.27l-0.1 -11.61 56.74 -0.46zm144.91 140.2l-0.09 -11.64c6.25,-0.72 10.39,-2.08 12.5,-4.11 2.08,-2.09 3.12,-6.19 3.07,-12.33l-0.69 -85.43c-0.05,-6.19 -1.15,-10.28 -3.27,-12.33 -2.15,-2 -6.31,-3.3 -12.57,-3.91l-0.1 -11.61 110.94 -0.89 0.24 29.13 -10.72 0.09c-2.84,-6.26 -6.8,-10.83 -11.9,-13.71 -5.09,-2.84 -11.76,-4.23 -20.03,-4.16 -7.64,0.06 -12.56,0.59 -14.68,1.62 -2.16,1.05 -3.2,3.86 -3.17,8.46l0.31 39.1 14.9 -0.12c6.52,-0.05 11.43,-1.38 14.81,-4.01 3.35,-2.62 5.45,-6.87 6.21,-12.73l11.64 -0.09 0.38 47 -11.52 0.1c-0.71,-5.94 -2.88,-10.47 -6.54,-13.61 -3.68,-3.17 -8.62,-4.72 -14.88,-4.67l-14.9 0.12 0.31 38.84c0.05,6.23 1.42,10.6 4.06,13.11 2.64,2.52 7.37,3.75 14.2,3.7 9.02,-0.07 17.13,-2.22 24.33,-6.45 7.17,-4.21 13.08,-10.31 17.77,-18.27l11.21 -0.09 -8.08 37.99 -113.76 0.91zm132.58 -1.07l-0.1 -11.64c6.24,-0.72 10.38,-2.08 12.5,-4.11 2.09,-2.09 3.12,-6.19 3.07,-12.33l-0.69 -85.43c-0.05,-6.19 -1.15,-10.28 -3.27,-12.33 -2.15,-2 -6.31,-3.29 -12.56,-3.91l-0.1 -11.61 110.94 -0.89 0.24 29.13 -10.73 0.09c-2.84,-6.26 -6.82,-10.83 -11.9,-13.71 -5.12,-2.83 -11.79,-4.22 -20.03,-4.16 -7.64,0.06 -12.59,0.59 -14.68,1.62 -2.15,1.05 -3.2,3.86 -3.16,8.47l0.31 39.1 14.9 -0.12c6.51,-0.05 11.43,-1.38 14.8,-4.01 3.35,-2.62 5.45,-6.87 6.21,-12.73l11.61 -0.1 0.38 47 -11.5 0.09c-0.71,-5.93 -2.88,-10.46 -6.54,-13.6 -3.68,-3.17 -8.62,-4.72 -14.87,-4.67l-14.9 0.12 0.31 38.84c0.05,6.22 1.41,10.6 4.05,13.11 2.64,2.52 7.38,3.75 14.21,3.69 9.02,-0.07 17.13,-2.21 24.3,-6.45 7.19,-4.2 13.11,-10.31 17.81,-18.27l11.21 -0.09 -8.09 37.99 -113.75 0.91zm221.08 -37.97l0.05 6.66c0.03,3.63 0.17,6.34 0.44,8.09 0.31,1.76 0.75,3.11 1.42,4.08 1.36,2.27 3.66,3.91 6.78,4.99 3.18,1.1 7.19,1.62 12.06,1.57l1.17 -0.01 0.09 10.64 -78.25 0.63 -0.09 -10.64 1.26 -0.01c4.87,-0.04 8.87,-0.62 11.95,-1.77 3.13,-1.12 5.33,-2.81 6.67,-5.1 0.65,-0.98 1.13,-2.34 1.41,-4.1 0.27,-1.76 0.4,-4.47 0.37,-8.1l-0.05 -6.66 -0.74 -92.41 -13.84 0.11c-7.92,0.06 -14.1,2.01 -18.54,5.86 -4.41,3.86 -8.1,10.5 -11.02,19.94l-11.01 0.09 3.89 -38.35 136.75 -1.1 3.53 38.29 -10.71 0.09c-2.29,-9.26 -5.8,-15.8 -10.53,-19.68 -4.76,-3.82 -11.69,-5.7 -20.88,-5.62l-12.94 0.1 0.74 92.41zm72.08 29.44l-0.28 -35.21 11.01 -0.09c2.18,9.72 6.39,17.27 12.74,22.57 6.36,5.28 14.21,7.93 23.58,7.86 6.82,-0.06 12.45,-1.98 16.86,-5.73 4.41,-3.77 6.62,-8.49 6.58,-14.17 -0.07,-7.93 -9.16,-16.79 -27.25,-26.56 -4.81,-2.7 -8.54,-4.8 -11.17,-6.27 -12.74,-7.28 -21.38,-13.98 -25.89,-20.02 -4.6,-6.02 -6.91,-13.23 -6.98,-21.61 -0.1,-12.33 4.35,-22.08 13.31,-29.24 8.99,-7.16 21.35,-10.81 37.06,-10.93 7.46,-0.06 14.65,0.94 21.49,3 6.81,2.08 13.61,5.28 20.33,9.61l0.23 28.01 -10.35 0.08c-2.15,-8.86 -6.3,-15.83 -12.36,-20.99 -6.09,-5.2 -13.17,-7.77 -21.24,-7.7 -6.34,0.05 -11.51,1.74 -15.49,5 -3.95,3.28 -5.93,7.44 -5.89,12.52 0.07,7.81 9.3,16.39 27.7,25.8l0.7 0.4c0.93,0.46 2.31,1.13 4.22,2.13 10.39,5.16 18.06,9.74 23.05,13.76 5.22,4.14 9.24,8.89 12.07,14.17 2.84,5.29 4.29,10.75 4.34,16.48 0.11,13.57 -4.33,24.47 -13.34,32.67 -9.01,8.2 -21.22,12.36 -36.61,12.48 -6.57,0.05 -13.87,-0.57 -21.92,-1.92 -8.02,-1.31 -16.85,-3.35 -26.51,-6.07z"/>
  </g>
 </g>
</svg>
