<?xml version="1.0" encoding="UTF-8"?>
<svg xmlns="http://www.w3.org/2000/svg" xmlns:xlink="http://www.w3.org/1999/xlink" viewBox="0 0 50 50" width="50px" height="50px">
<g id="surface50692393">
<path style=" stroke:none;fill-rule:nonzero;fill:rgb(100%,9.019608%,0%);fill-opacity:1;" d="M 9 4.5 C 6.519531 4.5 4.5 6.519531 4.5 9 L 4.5 41 C 4.5 43.480469 6.519531 45.5 9 45.5 L 41 45.5 C 43.480469 45.5 45.5 43.480469 45.5 41 L 45.5 9 C 45.5 6.519531 43.480469 4.5 41 4.5 Z M 36.230469 20.757812 L 35.996094 22.484375 L 37.261719 22.484375 C 37.21875 22.660156 37.066406 23.644531 37.027344 23.949219 L 35.796875 23.949219 L 35.515625 25.988281 C 35.445312 26.515625 35.484375 26.699219 35.84375 26.699219 C 36.117188 26.699219 36.507812 26.542969 36.75 26.421875 L 36.53125 27.738281 C 36.203125 27.917969 35.589844 28.171875 34.878906 28.171875 C 33.667969 28.171875 33.417969 27.523438 33.613281 26.15625 L 33.925781 23.949219 L 33.324219 23.949219 L 33.492188 22.515625 L 34.140625 22.484375 L 34.390625 21.445312 Z M 30.699219 22.214844 C 31.878906 22.195312 32.683594 22.675781 32.796875 23.613281 C 32.828125 23.898438 32.835938 24.203125 32.792969 24.476562 C 32.601562 25.804688 32.484375 26.804688 32.433594 27.476562 C 32.425781 27.582031 32.425781 27.757812 32.433594 28.011719 L 30.617188 28.011719 C 30.660156 27.910156 30.691406 27.765625 30.722656 27.589844 C 30.746094 27.46875 30.753906 27.324219 30.769531 27.140625 C 30.394531 27.667969 29.867188 27.988281 29.203125 28.066406 C 28.257812 28.1875 27.636719 27.8125 27.449219 26.957031 C 27.332031 26.421875 27.5 25.8125 27.777344 25.445312 C 28.164062 24.964844 28.777344 24.660156 29.539062 24.566406 C 30.148438 24.492188 30.660156 24.523438 31.136719 24.621094 L 31.160156 24.542969 C 31.179688 24.414062 31.1875 24.277344 31.171875 24.117188 C 31.125 23.71875 30.804688 23.46875 30.019531 23.566406 C 29.492188 23.628906 28.980469 23.820312 28.589844 24.039062 L 28.203125 22.886719 C 28.730469 22.582031 29.402344 22.351562 30.171875 22.253906 C 30.355469 22.230469 30.53125 22.21875 30.699219 22.214844 Z M 40.261719 22.316406 C 41.855469 22.316406 42.636719 23.386719 42.636719 24.777344 C 42.636719 26.652344 41.308594 28.210938 39.554688 28.210938 C 37.980469 28.210938 37.179688 27.140625 37.179688 25.738281 C 37.179688 23.875 38.515625 22.3125 40.261719 22.3125 Z M 23.042969 22.371094 C 24.089844 22.371094 24.160156 23.203125 24.03125 24.097656 C 24.617188 23.019531 25.441406 22.371094 26.210938 22.371094 C 27.265625 22.371094 27.335938 23.226562 27.199219 24.179688 L 26.546875 27.964844 L 24.722656 27.964844 L 25.199219 24.617188 C 25.242188 24.292969 25.25 24.042969 24.988281 24.042969 C 24.53125 24.042969 23.929688 24.933594 23.792969 25.675781 L 23.628906 26.828125 C 23.570312 27.234375 23.507812 27.691406 23.496094 27.980469 L 21.496094 27.980469 C 21.609375 27.5 21.714844 26.738281 21.808594 26.082031 L 22.003906 24.785156 C 22.074219 24.308594 22.082031 24.050781 21.820312 24.050781 C 21.363281 24.050781 20.761719 24.941406 20.628906 25.683594 L 20.457031 26.835938 C 20.410156 27.242188 20.332031 27.699219 20.324219 27.988281 L 18.347656 27.988281 C 18.457031 27.507812 18.5625 26.746094 18.660156 26.089844 L 18.90625 24.417969 C 19.003906 23.789062 19.035156 23.117188 19.011719 22.601562 C 19.753906 22.585938 20.28125 22.53125 20.890625 22.425781 C 20.9375 22.605469 20.96875 23.445312 20.816406 24.179688 C 21.402344 23.050781 22.257812 22.371094 23.042969 22.371094 Z M 15.910156 22.386719 C 17.488281 22.386719 18.265625 23.445312 18.265625 24.8125 C 18.265625 26.660156 16.960938 28.207031 15.222656 28.207031 C 13.671875 28.207031 12.871094 27.148438 12.871094 25.765625 C 12.871094 23.925781 14.191406 22.386719 15.910156 22.386719 Z M 12.902344 22.515625 L 12.867188 23.53125 L 10.21875 26.410156 C 11.324219 26.410156 12.03125 26.40625 12.429688 26.378906 C 12.3125 26.925781 12.214844 27.371094 12.117188 28.042969 C 11.589844 27.996094 10.757812 27.988281 9.925781 27.988281 C 9 27.988281 8.191406 27.996094 7.542969 28.042969 L 7.566406 27.019531 L 10.214844 24.15625 C 9.054688 24.15625 8.628906 24.164062 8.148438 24.179688 C 8.253906 23.667969 8.335938 23.097656 8.40625 22.53125 C 9.253906 22.546875 9.589844 22.566406 10.675781 22.566406 C 11.695312 22.566406 12.261719 22.546875 12.902344 22.515625 Z M 15.714844 23.867188 C 15.199219 23.867188 14.785156 24.683594 14.785156 25.699219 C 14.785156 26.378906 15.007812 26.726562 15.394531 26.726562 C 15.90625 26.726562 16.304688 25.902344 16.304688 24.894531 C 16.304688 24.203125 16.082031 23.867188 15.714844 23.867188 Z M 40.019531 23.867188 C 39.507812 23.867188 39.09375 24.683594 39.09375 25.699219 C 39.09375 26.378906 39.316406 26.726562 39.699219 26.726562 C 40.214844 26.726562 40.613281 25.902344 40.613281 24.894531 C 40.613281 24.203125 40.390625 23.867188 40.019531 23.867188 Z M 30.527344 25.425781 C 30.335938 25.414062 30.132812 25.414062 29.933594 25.4375 C 29.546875 25.484375 29.226562 25.644531 29.058594 25.878906 C 28.929688 26.046875 28.867188 26.246094 28.890625 26.476562 C 28.929688 26.828125 29.324219 27.101562 29.78125 27.042969 C 30.453125 26.964844 30.90625 26.316406 31.019531 25.675781 L 31.035156 25.5 C 30.890625 25.46875 30.714844 25.441406 30.527344 25.425781 Z M 30.527344 25.425781 "/>
</g>
</svg>
